<svg xmlns="http://www.w3.org/2000/svg" xmlns:xlink="http://www.w3.org/1999/xlink" width="1000" zoomAndPan="magnify" viewBox="0 0 375 374.999991" height="500" preserveAspectRatio="xMidYMid meet" version="1.0"><defs><g/><clipPath id="96a6d354b2"><path d="M 150.925781 129.558594 L 224.425781 129.558594 L 224.425781 195.539062 L 150.925781 195.539062 Z M 150.925781 129.558594 " clip-rule="nonzero"/></clipPath></defs><g clip-path="url(#96a6d354b2)"><path fill="#000000" d="M 158.320312 132.335938 C 157.992188 132.007812 157.535156 131.800781 157.03125 131.800781 C 156.527344 131.800781 156.070312 132.007812 155.742188 132.335938 C 155.410156 132.664062 155.207031 133.121094 155.207031 133.625 C 155.207031 134.128906 155.410156 134.585938 155.742188 134.914062 C 156.070312 135.246094 156.527344 135.449219 157.03125 135.449219 C 157.535156 135.449219 157.992188 135.246094 158.320312 134.914062 C 158.648438 134.585938 158.851562 134.128906 158.851562 133.625 C 158.851562 133.121094 158.648438 132.664062 158.320312 132.335938 M 181.15625 190.429688 C 180.824219 190.101562 180.371094 189.894531 179.863281 189.894531 C 179.363281 189.894531 178.90625 190.101562 178.578125 190.429688 C 178.246094 190.757812 178.042969 191.214844 178.042969 191.71875 C 178.042969 192.222656 178.246094 192.679688 178.578125 193.007812 C 178.90625 193.335938 179.363281 193.542969 179.863281 193.542969 C 180.371094 193.542969 180.824219 193.335938 181.15625 193.007812 C 181.484375 192.679688 181.6875 192.222656 181.6875 191.71875 C 181.6875 191.214844 181.484375 190.757812 181.15625 190.429688 Z M 150.925781 192.910156 L 166.019531 136.574219 L 177.242188 134.816406 L 160.917969 134.816406 C 160.722656 135.460938 160.367188 136.039062 159.90625 136.5 C 159.171875 137.234375 158.152344 137.691406 157.03125 137.691406 C 155.910156 137.691406 154.890625 137.234375 154.15625 136.5 C 153.421875 135.765625 152.964844 134.746094 152.964844 133.625 C 152.964844 132.503906 153.421875 131.484375 154.15625 130.75 C 154.890625 130.015625 155.910156 129.558594 157.03125 129.558594 C 158.152344 129.558594 159.171875 130.015625 159.90625 130.75 C 160.367188 131.214844 160.722656 131.789062 160.917969 132.433594 L 185.550781 132.433594 L 194.992188 160.554688 C 195.296875 161.355469 195.554688 162.476562 195.757812 163.921875 C 195.957031 165.378906 196.101562 167.128906 196.214844 169.175781 C 196.332031 168.113281 196.535156 166.933594 196.796875 165.644531 C 197.054688 164.367188 197.429688 162.796875 197.925781 160.960938 L 205.570312 132.433594 L 224.074219 132.433594 L 207.867188 192.910156 L 183.753906 192.910156 C 183.554688 193.554688 183.203125 194.132812 182.742188 194.59375 C 182.003906 195.328125 180.988281 195.785156 179.863281 195.785156 C 178.742188 195.785156 177.726562 195.328125 176.988281 194.59375 C 176.253906 193.859375 175.796875 192.839844 175.796875 191.71875 C 175.796875 190.597656 176.253906 189.578125 176.988281 188.84375 C 177.726562 188.109375 178.742188 187.652344 179.863281 187.652344 C 180.988281 187.652344 182.003906 188.109375 182.742188 188.84375 C 183.203125 189.308594 183.554688 189.882812 183.753906 190.527344 L 198.71875 190.527344 L 187.699219 188.011719 L 179.871094 164.984375 C 179.570312 164.171875 179.304688 163.007812 179.089844 161.507812 C 178.878906 159.996094 178.726562 158.269531 178.617188 156.320312 C 178.523438 157.402344 178.351562 158.507812 178.125 159.671875 C 177.898438 160.835938 177.5 162.476562 176.9375 164.578125 L 169.34375 192.910156 Z M 150.925781 192.910156 " fill-opacity="1" fill-rule="nonzero"/></g><g fill="#000000" fill-opacity="1"><g transform="translate(163.498222, 210.69403)"><g><path d="M 1.734375 0 L 1.734375 -11.421875 L 5.875 -11.421875 C 6.644531 -11.421875 7.289062 -11.296875 7.8125 -11.046875 C 8.332031 -10.796875 8.722656 -10.4375 8.984375 -9.96875 C 9.242188 -9.507812 9.375 -8.96875 9.375 -8.34375 C 9.375 -7.632812 9.195312 -7.046875 8.84375 -6.578125 C 8.488281 -6.117188 7.9375 -5.773438 7.1875 -5.546875 L 7.1875 -5.390625 C 7.550781 -5.242188 7.847656 -5.015625 8.078125 -4.703125 C 8.316406 -4.390625 8.535156 -3.921875 8.734375 -3.296875 L 9.796875 0 L 8.40625 0 L 7.265625 -3.5 C 7.128906 -3.90625 6.972656 -4.222656 6.796875 -4.453125 C 6.617188 -4.691406 6.394531 -4.863281 6.125 -4.96875 C 5.851562 -5.070312 5.507812 -5.125 5.09375 -5.125 L 3.078125 -5.125 L 3.078125 0 Z M 5.84375 -6.265625 C 6.5625 -6.265625 7.09375 -6.429688 7.4375 -6.765625 C 7.789062 -7.097656 7.96875 -7.601562 7.96875 -8.28125 C 7.96875 -8.957031 7.789062 -9.457031 7.4375 -9.78125 C 7.09375 -10.113281 6.5625 -10.28125 5.84375 -10.28125 L 3.078125 -10.28125 L 3.078125 -6.265625 Z M 5.84375 -6.265625 "/></g></g></g><g fill="#000000" fill-opacity="1"><g transform="translate(174.073764, 210.69403)"><g><path d="M 3.5625 0.171875 C 2.707031 0.171875 2.039062 -0.0507812 1.5625 -0.5 C 1.09375 -0.945312 0.859375 -1.582031 0.859375 -2.40625 C 0.859375 -2.914062 0.960938 -3.34375 1.171875 -3.6875 C 1.378906 -4.039062 1.703125 -4.328125 2.140625 -4.546875 C 2.585938 -4.773438 3.171875 -4.945312 3.890625 -5.0625 C 4.515625 -5.164062 4.988281 -5.28125 5.3125 -5.40625 C 5.632812 -5.539062 5.851562 -5.6875 5.96875 -5.84375 C 6.082031 -6.007812 6.140625 -6.21875 6.140625 -6.46875 C 6.140625 -6.851562 6.003906 -7.148438 5.734375 -7.359375 C 5.460938 -7.566406 5.03125 -7.671875 4.4375 -7.671875 C 3.882812 -7.671875 3.40625 -7.5625 3 -7.34375 C 2.601562 -7.132812 2.238281 -6.816406 1.90625 -6.390625 L 1.75 -6.390625 L 1.125 -7.265625 C 1.488281 -7.734375 1.953125 -8.101562 2.515625 -8.375 C 3.078125 -8.644531 3.71875 -8.78125 4.4375 -8.78125 C 5.457031 -8.78125 6.207031 -8.554688 6.6875 -8.109375 C 7.164062 -7.671875 7.40625 -7.054688 7.40625 -6.265625 L 7.40625 -1.703125 C 7.40625 -1.222656 7.609375 -0.984375 8.015625 -0.984375 C 8.148438 -0.984375 8.28125 -1.003906 8.40625 -1.046875 L 8.515625 -1.015625 L 8.671875 -0.140625 C 8.578125 -0.078125 8.453125 -0.03125 8.296875 0 C 8.140625 0.0390625 7.984375 0.0625 7.828125 0.0625 C 7.347656 0.0625 6.988281 -0.0390625 6.75 -0.25 C 6.507812 -0.457031 6.351562 -0.765625 6.28125 -1.171875 L 6.125 -1.1875 C 5.875 -0.738281 5.539062 -0.398438 5.125 -0.171875 C 4.707031 0.0546875 4.1875 0.171875 3.5625 0.171875 Z M 3.84375 -0.859375 C 4.320312 -0.859375 4.734375 -0.96875 5.078125 -1.1875 C 5.429688 -1.40625 5.703125 -1.710938 5.890625 -2.109375 C 6.078125 -2.515625 6.171875 -2.984375 6.171875 -3.515625 L 6.171875 -4.609375 L 6.03125 -4.640625 C 5.832031 -4.503906 5.59375 -4.390625 5.3125 -4.296875 C 5.039062 -4.203125 4.660156 -4.117188 4.171875 -4.046875 C 3.671875 -3.984375 3.269531 -3.878906 2.96875 -3.734375 C 2.675781 -3.597656 2.46875 -3.421875 2.34375 -3.203125 C 2.21875 -2.984375 2.15625 -2.71875 2.15625 -2.40625 C 2.15625 -1.894531 2.300781 -1.507812 2.59375 -1.25 C 2.894531 -0.988281 3.3125 -0.859375 3.84375 -0.859375 Z M 3.84375 -0.859375 "/></g></g></g><g fill="#000000" fill-opacity="1"><g transform="translate(182.985655, 210.69403)"><g><path d="M 1.734375 3.65625 C 1.441406 3.65625 1.164062 3.628906 0.90625 3.578125 C 0.65625 3.535156 0.441406 3.46875 0.265625 3.375 L 0.5 2.375 L 0.640625 2.328125 C 0.765625 2.390625 0.921875 2.441406 1.109375 2.484375 C 1.296875 2.523438 1.488281 2.546875 1.6875 2.546875 C 2.03125 2.546875 2.316406 2.5 2.546875 2.40625 C 2.773438 2.3125 2.972656 2.15625 3.140625 1.9375 C 3.304688 1.726562 3.457031 1.429688 3.59375 1.046875 L 3.90625 0.203125 L 0.4375 -8.625 L 1.8125 -8.625 L 4.53125 -1.59375 L 4.671875 -1.59375 L 7.296875 -8.625 L 8.609375 -8.625 L 4.75 1.359375 C 4.53125 1.910156 4.285156 2.351562 4.015625 2.6875 C 3.742188 3.019531 3.421875 3.265625 3.046875 3.421875 C 2.679688 3.578125 2.242188 3.65625 1.734375 3.65625 Z M 1.734375 3.65625 "/></g></g></g><g fill="#000000" fill-opacity="1"><g transform="translate(192.06938, 210.69403)"><g><path d="M 3.5625 0.171875 C 2.707031 0.171875 2.039062 -0.0507812 1.5625 -0.5 C 1.09375 -0.945312 0.859375 -1.582031 0.859375 -2.40625 C 0.859375 -2.914062 0.960938 -3.34375 1.171875 -3.6875 C 1.378906 -4.039062 1.703125 -4.328125 2.140625 -4.546875 C 2.585938 -4.773438 3.171875 -4.945312 3.890625 -5.0625 C 4.515625 -5.164062 4.988281 -5.28125 5.3125 -5.40625 C 5.632812 -5.539062 5.851562 -5.6875 5.96875 -5.84375 C 6.082031 -6.007812 6.140625 -6.21875 6.140625 -6.46875 C 6.140625 -6.851562 6.003906 -7.148438 5.734375 -7.359375 C 5.460938 -7.566406 5.03125 -7.671875 4.4375 -7.671875 C 3.882812 -7.671875 3.40625 -7.5625 3 -7.34375 C 2.601562 -7.132812 2.238281 -6.816406 1.90625 -6.390625 L 1.75 -6.390625 L 1.125 -7.265625 C 1.488281 -7.734375 1.953125 -8.101562 2.515625 -8.375 C 3.078125 -8.644531 3.71875 -8.78125 4.4375 -8.78125 C 5.457031 -8.78125 6.207031 -8.554688 6.6875 -8.109375 C 7.164062 -7.671875 7.40625 -7.054688 7.40625 -6.265625 L 7.40625 -1.703125 C 7.40625 -1.222656 7.609375 -0.984375 8.015625 -0.984375 C 8.148438 -0.984375 8.28125 -1.003906 8.40625 -1.046875 L 8.515625 -1.015625 L 8.671875 -0.140625 C 8.578125 -0.078125 8.453125 -0.03125 8.296875 0 C 8.140625 0.0390625 7.984375 0.0625 7.828125 0.0625 C 7.347656 0.0625 6.988281 -0.0390625 6.75 -0.25 C 6.507812 -0.457031 6.351562 -0.765625 6.28125 -1.171875 L 6.125 -1.1875 C 5.875 -0.738281 5.539062 -0.398438 5.125 -0.171875 C 4.707031 0.0546875 4.1875 0.171875 3.5625 0.171875 Z M 3.84375 -0.859375 C 4.320312 -0.859375 4.734375 -0.96875 5.078125 -1.1875 C 5.429688 -1.40625 5.703125 -1.710938 5.890625 -2.109375 C 6.078125 -2.515625 6.171875 -2.984375 6.171875 -3.515625 L 6.171875 -4.609375 L 6.03125 -4.640625 C 5.832031 -4.503906 5.59375 -4.390625 5.3125 -4.296875 C 5.039062 -4.203125 4.660156 -4.117188 4.171875 -4.046875 C 3.671875 -3.984375 3.269531 -3.878906 2.96875 -3.734375 C 2.675781 -3.597656 2.46875 -3.421875 2.34375 -3.203125 C 2.21875 -2.984375 2.15625 -2.71875 2.15625 -2.40625 C 2.15625 -1.894531 2.300781 -1.507812 2.59375 -1.25 C 2.894531 -0.988281 3.3125 -0.859375 3.84375 -0.859375 Z M 3.84375 -0.859375 "/></g></g></g></svg>