<svg xmlns="http://www.w3.org/2000/svg" xmlns:xlink="http://www.w3.org/1999/xlink" width="500" zoomAndPan="magnify" viewBox="0 0 375 374.999991" height="500" preserveAspectRatio="xMidYMid meet" version="1.0"><defs><g/><clipPath id="a85e9ee03b"><path d="M 43.074219 54.207031 L 337.824219 54.207031 L 337.824219 320.457031 L 43.074219 320.457031 Z M 43.074219 54.207031 " clip-rule="nonzero"/></clipPath></defs><g clip-path="url(#a85e9ee03b)"><path fill="#000000" d="M 72.84375 65.390625 C 71.519531 64.0625 69.683594 63.242188 67.652344 63.242188 C 65.628906 63.242188 63.789062 64.0625 62.464844 65.390625 C 61.136719 66.714844 60.316406 68.554688 60.316406 70.578125 C 60.316406 72.609375 61.136719 74.445312 62.464844 75.769531 C 63.789062 77.097656 65.625 77.917969 67.652344 77.917969 C 69.683594 77.917969 71.519531 77.097656 72.84375 75.769531 C 74.171875 74.445312 74.988281 72.609375 74.988281 70.578125 C 74.988281 68.554688 74.171875 66.714844 72.84375 65.390625 M 164.757812 299.21875 C 163.429688 297.890625 161.59375 297.070312 159.5625 297.070312 C 157.539062 297.070312 155.699219 297.890625 154.375 299.21875 C 153.046875 300.542969 152.226562 302.382812 152.226562 304.40625 C 152.226562 306.433594 153.046875 308.269531 154.375 309.597656 C 155.699219 310.921875 157.539062 311.742188 159.5625 311.742188 C 161.59375 311.742188 163.429688 310.921875 164.757812 309.597656 C 166.082031 308.269531 166.90625 306.433594 166.90625 304.40625 C 166.90625 302.382812 166.082031 300.542969 164.757812 299.21875 Z M 43.074219 309.203125 L 103.835938 82.449219 L 149.003906 75.378906 L 83.304688 75.378906 C 82.511719 77.96875 81.09375 80.289062 79.230469 82.152344 C 76.269531 85.113281 72.171875 86.949219 67.652344 86.949219 C 63.136719 86.949219 59.039062 85.113281 56.082031 82.152344 C 53.121094 79.195312 51.285156 75.097656 51.285156 70.578125 C 51.285156 66.0625 53.121094 61.964844 56.082031 59.007812 C 59.039062 56.046875 63.136719 54.210938 67.652344 54.210938 C 72.171875 54.210938 76.269531 56.046875 79.230469 59.007812 C 81.09375 60.871094 82.511719 63.191406 83.304688 65.785156 L 182.445312 65.785156 L 220.445312 178.972656 C 221.671875 182.1875 222.714844 186.703125 223.53125 192.515625 C 224.328125 198.386719 224.921875 205.4375 225.367188 213.675781 C 225.835938 209.386719 226.65625 204.648438 227.707031 199.457031 C 228.746094 194.320312 230.269531 188.003906 232.253906 180.609375 L 263.019531 65.785156 L 337.496094 65.785156 L 272.277344 309.203125 L 175.214844 309.203125 C 174.421875 311.792969 173.003906 314.117188 171.136719 315.980469 C 168.179688 318.9375 164.082031 320.773438 159.5625 320.773438 C 155.046875 320.773438 150.949219 318.941406 147.992188 315.980469 C 145.03125 313.023438 143.195312 308.925781 143.195312 304.40625 C 143.195312 299.886719 145.03125 295.792969 147.992188 292.832031 C 150.949219 289.875 155.046875 288.039062 159.5625 288.039062 C 164.082031 288.039062 168.179688 289.875 171.136719 292.832031 C 173.003906 294.699219 174.421875 297.019531 175.214844 299.613281 L 235.457031 299.613281 L 191.089844 289.488281 L 159.582031 196.804688 C 158.371094 193.535156 157.316406 188.847656 156.445312 182.8125 C 155.597656 176.71875 154.972656 169.777344 154.535156 161.933594 C 154.160156 166.28125 153.476562 170.734375 152.558594 175.417969 C 151.644531 180.101562 150.046875 186.703125 147.777344 195.171875 L 117.21875 309.203125 Z M 43.074219 309.203125 " fill-opacity="1" fill-rule="nonzero"/></g><g fill="#000000" fill-opacity="1"><g transform="translate(168.749203, 343.125505)"><g><path d="M 1.734375 0 L 1.734375 -11.421875 L 5.875 -11.421875 C 6.644531 -11.421875 7.289062 -11.296875 7.8125 -11.046875 C 8.332031 -10.796875 8.722656 -10.4375 8.984375 -9.96875 C 9.242188 -9.507812 9.375 -8.96875 9.375 -8.34375 C 9.375 -7.632812 9.195312 -7.046875 8.84375 -6.578125 C 8.488281 -6.117188 7.9375 -5.773438 7.1875 -5.546875 L 7.1875 -5.390625 C 7.550781 -5.242188 7.847656 -5.015625 8.078125 -4.703125 C 8.316406 -4.390625 8.535156 -3.921875 8.734375 -3.296875 L 9.796875 0 L 8.40625 0 L 7.265625 -3.5 C 7.128906 -3.90625 6.972656 -4.222656 6.796875 -4.453125 C 6.617188 -4.691406 6.394531 -4.863281 6.125 -4.96875 C 5.851562 -5.070312 5.507812 -5.125 5.09375 -5.125 L 3.078125 -5.125 L 3.078125 0 Z M 5.84375 -6.265625 C 6.5625 -6.265625 7.09375 -6.429688 7.4375 -6.765625 C 7.789062 -7.097656 7.96875 -7.601562 7.96875 -8.28125 C 7.96875 -8.957031 7.789062 -9.457031 7.4375 -9.78125 C 7.09375 -10.113281 6.5625 -10.28125 5.84375 -10.28125 L 3.078125 -10.28125 L 3.078125 -6.265625 Z M 5.84375 -6.265625 "/></g></g></g><g fill="#000000" fill-opacity="1"><g transform="translate(179.324745, 343.125505)"><g><path d="M 3.5625 0.171875 C 2.707031 0.171875 2.039062 -0.0507812 1.5625 -0.5 C 1.09375 -0.945312 0.859375 -1.582031 0.859375 -2.40625 C 0.859375 -2.914062 0.960938 -3.34375 1.171875 -3.6875 C 1.378906 -4.039062 1.703125 -4.328125 2.140625 -4.546875 C 2.585938 -4.773438 3.171875 -4.945312 3.890625 -5.0625 C 4.515625 -5.164062 4.988281 -5.28125 5.3125 -5.40625 C 5.632812 -5.539062 5.851562 -5.6875 5.96875 -5.84375 C 6.082031 -6.007812 6.140625 -6.21875 6.140625 -6.46875 C 6.140625 -6.851562 6.003906 -7.148438 5.734375 -7.359375 C 5.460938 -7.566406 5.03125 -7.671875 4.4375 -7.671875 C 3.882812 -7.671875 3.40625 -7.5625 3 -7.34375 C 2.601562 -7.132812 2.238281 -6.816406 1.90625 -6.390625 L 1.75 -6.390625 L 1.125 -7.265625 C 1.488281 -7.734375 1.953125 -8.101562 2.515625 -8.375 C 3.078125 -8.644531 3.71875 -8.78125 4.4375 -8.78125 C 5.457031 -8.78125 6.207031 -8.554688 6.6875 -8.109375 C 7.164062 -7.671875 7.40625 -7.054688 7.40625 -6.265625 L 7.40625 -1.703125 C 7.40625 -1.222656 7.609375 -0.984375 8.015625 -0.984375 C 8.148438 -0.984375 8.28125 -1.003906 8.40625 -1.046875 L 8.515625 -1.015625 L 8.671875 -0.140625 C 8.578125 -0.078125 8.453125 -0.03125 8.296875 0 C 8.140625 0.0390625 7.984375 0.0625 7.828125 0.0625 C 7.347656 0.0625 6.988281 -0.0390625 6.75 -0.25 C 6.507812 -0.457031 6.351562 -0.765625 6.28125 -1.171875 L 6.125 -1.1875 C 5.875 -0.738281 5.539062 -0.398438 5.125 -0.171875 C 4.707031 0.0546875 4.1875 0.171875 3.5625 0.171875 Z M 3.84375 -0.859375 C 4.320312 -0.859375 4.734375 -0.96875 5.078125 -1.1875 C 5.429688 -1.40625 5.703125 -1.710938 5.890625 -2.109375 C 6.078125 -2.515625 6.171875 -2.984375 6.171875 -3.515625 L 6.171875 -4.609375 L 6.03125 -4.640625 C 5.832031 -4.503906 5.59375 -4.390625 5.3125 -4.296875 C 5.039062 -4.203125 4.660156 -4.117188 4.171875 -4.046875 C 3.671875 -3.984375 3.269531 -3.878906 2.96875 -3.734375 C 2.675781 -3.597656 2.46875 -3.421875 2.34375 -3.203125 C 2.21875 -2.984375 2.15625 -2.71875 2.15625 -2.40625 C 2.15625 -1.894531 2.300781 -1.507812 2.59375 -1.25 C 2.894531 -0.988281 3.3125 -0.859375 3.84375 -0.859375 Z M 3.84375 -0.859375 "/></g></g></g><g fill="#000000" fill-opacity="1"><g transform="translate(188.236637, 343.125505)"><g><path d="M 1.734375 3.65625 C 1.441406 3.65625 1.164062 3.628906 0.90625 3.578125 C 0.65625 3.535156 0.441406 3.46875 0.265625 3.375 L 0.5 2.375 L 0.640625 2.328125 C 0.765625 2.390625 0.921875 2.441406 1.109375 2.484375 C 1.296875 2.523438 1.488281 2.546875 1.6875 2.546875 C 2.03125 2.546875 2.316406 2.5 2.546875 2.40625 C 2.773438 2.3125 2.972656 2.15625 3.140625 1.9375 C 3.304688 1.726562 3.457031 1.429688 3.59375 1.046875 L 3.90625 0.203125 L 0.4375 -8.625 L 1.8125 -8.625 L 4.53125 -1.59375 L 4.671875 -1.59375 L 7.296875 -8.625 L 8.609375 -8.625 L 4.75 1.359375 C 4.53125 1.910156 4.285156 2.351562 4.015625 2.6875 C 3.742188 3.019531 3.421875 3.265625 3.046875 3.421875 C 2.679688 3.578125 2.242188 3.65625 1.734375 3.65625 Z M 1.734375 3.65625 "/></g></g></g><g fill="#000000" fill-opacity="1"><g transform="translate(197.320361, 343.125505)"><g><path d="M 3.5625 0.171875 C 2.707031 0.171875 2.039062 -0.0507812 1.5625 -0.5 C 1.09375 -0.945312 0.859375 -1.582031 0.859375 -2.40625 C 0.859375 -2.914062 0.960938 -3.34375 1.171875 -3.6875 C 1.378906 -4.039062 1.703125 -4.328125 2.140625 -4.546875 C 2.585938 -4.773438 3.171875 -4.945312 3.890625 -5.0625 C 4.515625 -5.164062 4.988281 -5.28125 5.3125 -5.40625 C 5.632812 -5.539062 5.851562 -5.6875 5.96875 -5.84375 C 6.082031 -6.007812 6.140625 -6.21875 6.140625 -6.46875 C 6.140625 -6.851562 6.003906 -7.148438 5.734375 -7.359375 C 5.460938 -7.566406 5.03125 -7.671875 4.4375 -7.671875 C 3.882812 -7.671875 3.40625 -7.5625 3 -7.34375 C 2.601562 -7.132812 2.238281 -6.816406 1.90625 -6.390625 L 1.75 -6.390625 L 1.125 -7.265625 C 1.488281 -7.734375 1.953125 -8.101562 2.515625 -8.375 C 3.078125 -8.644531 3.71875 -8.78125 4.4375 -8.78125 C 5.457031 -8.78125 6.207031 -8.554688 6.6875 -8.109375 C 7.164062 -7.671875 7.40625 -7.054688 7.40625 -6.265625 L 7.40625 -1.703125 C 7.40625 -1.222656 7.609375 -0.984375 8.015625 -0.984375 C 8.148438 -0.984375 8.28125 -1.003906 8.40625 -1.046875 L 8.515625 -1.015625 L 8.671875 -0.140625 C 8.578125 -0.078125 8.453125 -0.03125 8.296875 0 C 8.140625 0.0390625 7.984375 0.0625 7.828125 0.0625 C 7.347656 0.0625 6.988281 -0.0390625 6.75 -0.25 C 6.507812 -0.457031 6.351562 -0.765625 6.28125 -1.171875 L 6.125 -1.1875 C 5.875 -0.738281 5.539062 -0.398438 5.125 -0.171875 C 4.707031 0.0546875 4.1875 0.171875 3.5625 0.171875 Z M 3.84375 -0.859375 C 4.320312 -0.859375 4.734375 -0.96875 5.078125 -1.1875 C 5.429688 -1.40625 5.703125 -1.710938 5.890625 -2.109375 C 6.078125 -2.515625 6.171875 -2.984375 6.171875 -3.515625 L 6.171875 -4.609375 L 6.03125 -4.640625 C 5.832031 -4.503906 5.59375 -4.390625 5.3125 -4.296875 C 5.039062 -4.203125 4.660156 -4.117188 4.171875 -4.046875 C 3.671875 -3.984375 3.269531 -3.878906 2.96875 -3.734375 C 2.675781 -3.597656 2.46875 -3.421875 2.34375 -3.203125 C 2.21875 -2.984375 2.15625 -2.71875 2.15625 -2.40625 C 2.15625 -1.894531 2.300781 -1.507812 2.59375 -1.25 C 2.894531 -0.988281 3.3125 -0.859375 3.84375 -0.859375 Z M 3.84375 -0.859375 "/></g></g></g></svg>